<svg width="60" height="60"> 
  <path d="M33.7218 27.6516C33.7218 27.6516 33.8976 27.5009 33.998 27.4005C36.7356 24.5876 39.0462 13.7881 30.2308 13.7881C21.4153 13.7881 23.7259 24.6127 26.4635 27.4005C26.5639 27.5009 26.6393 27.5763 26.7398 27.6516C27.2169 28.4051 28.2969 30.4394 25.0068 31.5696C22.2441 32.097 18.6778 33.3025 16.1914 36.3666C19.5066 44.5792 24.2031 49.7529 30.2559 51.7621C36.3086 49.7529 41.0051 44.6043 44.3203 36.3666C41.8088 33.3025 38.2174 32.097 35.4296 31.5696C32.1646 30.4394 33.2446 28.4051 33.7218 27.6516Z"></path>
  <path d="M54.8702 8.46386C54.8702 8.46386 49.8221 7.83598 42.3378 5.24913C35.0041 2.68739 31.7894 0.477256 31.7643 0.477256C30.8601 -0.150622 29.6797 -0.150622 28.7756 0.477256C28.7505 0.477256 25.5106 2.68739 18.177 5.24913C10.6676 7.83598 5.69481 8.46386 5.64457 8.46386C4.33859 8.61455 3.33398 9.71962 3.33398 11.0507C3.33398 11.4777 3.3591 21.5991 6.47337 32.6497C10.7178 47.769 18.7295 57.2123 29.6295 59.9247C29.8304 59.975 30.0565 60.0001 30.2574 60.0001C30.4583 60.0001 30.6843 59.975 30.8853 59.9247C41.7852 57.2123 49.7969 47.769 54.0414 32.6497C57.1306 21.5991 57.1808 11.4777 57.1808 11.0507C57.1808 9.74473 56.2013 8.61455 54.8702 8.46386ZM30.2574 54.7008C11.8731 49.502 9.06023 21.373 8.63327 13.2357C10.969 12.7837 14.9121 11.8795 19.8848 10.1466C25.159 8.31317 28.5244 6.63046 30.2825 5.62585C32.0406 6.63046 35.406 8.31317 40.6802 10.1466C45.653 11.8795 49.596 12.7837 51.9317 13.2357C51.5048 21.373 48.717 49.502 30.2825 54.7008H30.2574Z"></path> 
</svg>