<svg width="60" height="60">
     <path d="M16.2267 38.56L14.4 41.46C12.9667 43.7266 9.33333 45.7933 6.77333 45.7933H0V52.6H6.77333C11.7 52.6 17.46 49.3733 20.16 45.0866L23.8333 39.26C23.4533 39.26 23.0733 39.24 22.7 39.2L16.2333 38.5466L16.2267 38.56Z"></path>
     <path d="M35.3538 27.2133L37.8405 18.78C38.7605 14.74 40.4738 11.9066 42.4671 9.94665L12.1338 8.01998C6.35381 7.65332 1.33381 12.0866 0.980479 17.8666L0.640479 23.42C0.340479 28.3733 3.55381 32.8533 8.10715 34.3666L23.0338 35.8733C28.1538 36.3933 33.8138 32.4266 35.3538 27.2133Z"></path>
    <path d="M52.3065 10.5733L47.8465 10.2866C45.5331 11.3 42.9198 13.4733 41.4998 18.1133C41.6065 18.1133 41.7065 18.1066 41.8131 18.1133L49.0065 18.8533C50.9065 19.0466 52.0065 20.7066 51.4598 22.5333L49.9398 27.5666C49.3865 29.3933 47.3798 30.7333 45.4798 30.5333L38.2865 29.7933C38.1798 29.78 38.0931 29.7533 37.9931 29.7333C36.7465 32.6266 34.5798 35.0933 31.9531 36.7933L43.1665 37.8C48.9331 38.32 55.1531 34.2466 56.9865 28.7466L59.4931 21.2333C61.3265 15.74 58.0931 10.94 52.3131 10.5733H52.3065Z"></path>
</svg>