<svg width="60" height="60">  
            <path d="M4 17.82V48.9333C4 49.5333 4.26 50.1066 4.70667 50.5066L14.7733 59.4666C15.16 59.8066 15.66 60 16.1733 60H38.5467C39.7133 60 40.6533 59.0533 40.6533 57.8933V52.1666H46.5067C47.6733 52.1666 48.6133 51.22 48.6133 50.06V9.97996C48.6133 8.81329 47.6667 7.87329 46.5067 7.87329H14.0733C12.9067 7.87329 11.9667 8.81996 11.9667 9.97996V15.7066H6.10667C4.94667 15.7133 4 16.6533 4 17.82ZM38.5467 15.7133H16.18V12.0933H44.4067V47.9466H40.66V17.82C40.66 16.6533 39.7133 15.7133 38.5533 15.7133H38.5467ZM16.9733 55.78V47.3266H8.22V19.9266H36.4467V55.78H16.98H16.9733Z"></path>
            <path d="M32.0197 42.6067H23.1797V45.98H32.0197V42.6067Z"></path>
            <path d="M32.0261 24.8201H13.1328V28.1934H32.0261V24.8201Z"></path>
            <path d="M32.0261 30.7466H13.1328V34.1199H32.0261V30.7466Z"></path>
            <path d="M32.0261 36.6733H13.1328V40.0467H32.0261V36.6733Z"></path>
            <path d="M53.9607 0H21.5207C20.3541 0 19.4141 0.946667 19.4141 2.10667V7.8H23.6341V4.22H51.8607V40.0733H48.3807V44.2933H53.9674C55.1341 44.2933 56.0741 43.3467 56.0741 42.1867V2.10667C56.0741 0.94 55.1274 0 53.9674 0H53.9607Z"></path>
</svg>