<svg width="60" height="60">  
            <path d="M27.3454 16.3133C25.8387 14.78 24.3521 13.26 22.8587 11.7533C22.2721 11.16 22.3454 10.6333 23.0054 10.1267C23.7254 9.57335 24.4121 9.54668 25.2387 9.91335C26.9521 10.66 28.7054 11.3267 30.4587 11.9933C30.6721 12.0733 31.0187 12.0133 31.2121 11.88C34.9587 9.44001 38.6921 6.97335 42.4387 4.52668C44.2454 3.34668 46.0787 2.21335 47.8921 1.06002C48.7721 0.500015 49.7987 0.486682 50.7787 0.280015C51.2654 0.173349 51.7454 0.0333485 52.2387 0.0133485C52.8387 -0.0066515 53.4587 0.0133485 54.0387 0.133349C54.8054 0.293349 55.1921 1.02668 54.7921 1.92668C54.4321 2.73335 53.8121 3.30002 53.1054 3.77335C50.5521 5.49335 47.9654 7.16668 45.4321 8.92668C44.8721 9.31335 44.4721 9.94668 44.0387 10.4933C42.8321 12.0067 41.5921 13.4933 40.4721 15.0733C39.6454 16.24 38.5854 17.0733 37.3854 17.7934C37.0054 18.02 36.6054 18.1467 36.3587 17.82C36.1987 17.6067 36.2321 17.1267 36.3587 16.8467C36.8187 15.7867 37.3454 14.76 37.9254 13.5667C37.0921 13.9267 36.4054 14.2067 35.7254 14.5133C33.2054 15.6467 30.6987 16.8 28.1787 17.9267C27.7521 18.1133 27.2921 18.2533 26.8387 18.3267C26.6521 18.3533 26.3121 18.18 26.2521 18.02C26.1587 17.78 26.1387 17.3867 26.2787 17.2C26.5187 16.8733 26.9054 16.66 27.3321 16.3133H27.3454Z"></path>
            <path d="M21.1659 50.9601C19.2792 50.7067 17.4592 50.2067 15.7192 49.4334C13.7792 48.5734 12.0459 47.4201 10.7792 45.6801C9.21255 43.5334 8.58588 41.1267 8.96588 38.5001C9.21921 36.7801 9.77255 35.1334 10.5525 33.5801C11.5859 31.5201 12.8859 29.6467 14.4259 27.9267C16.1525 26.0001 17.9925 24.1867 20.0392 22.6134C21.7459 21.3067 23.5725 20.1601 25.3392 18.9334C25.4725 18.8401 25.5659 18.7001 25.6725 18.5801C25.4059 18.4734 25.2059 18.4534 25.0325 18.5134C23.6125 19.0201 22.1725 19.4667 20.7925 20.0667C17.7725 21.3867 14.9659 23.0934 12.5125 25.3001C10.1525 27.4201 8.11921 29.8134 6.68588 32.6867C5.13255 35.7934 4.24588 39.0001 4.83255 42.5001C5.23921 44.9067 6.23255 47.0467 7.84588 48.8667C9.78588 51.0534 12.2125 52.5267 14.9792 53.4267C16.4792 53.9134 18.0059 54.3201 19.5925 54.3601C20.9059 54.3934 22.2192 54.3934 23.5325 54.3801C22.6325 53.3267 21.8325 52.1801 21.1459 50.9667L21.1659 50.9601Z"></path>
            <path d="M45.8999 35.8467C45.8133 35.9067 35.9199 38.32 35.9199 38.32V48.2467C35.9199 56.44 45.6733 59.8733 45.8999 60C46.1266 59.8667 55.8799 56.44 55.8799 48.2467V38.32C55.8799 38.32 45.9933 35.9067 45.8999 35.8467ZM52.7666 48.2467C52.7666 52.6533 48.5399 55.3467 45.8999 56.6067V39.0533C47.0399 39.36 49.0533 39.8533 52.7666 40.76V48.2467Z"></path>
            <path d="M34.4656 53.6466V53.8465C33.2656 52.6399 31.739 50.8599 30.4256 48.5732C31.3523 48.3132 32.2856 48.1199 33.2323 47.9999V45.2932C31.879 45.4532 30.5323 45.7332 29.2123 46.1399C28.4256 44.2866 27.8456 42.1866 27.6723 39.8799H33.2323V38.3199C33.2323 37.9199 33.3323 37.5332 33.4923 37.1866H27.6523C27.799 34.8732 28.359 32.7666 29.1256 30.8999C30.879 31.4466 32.6656 31.7799 34.4656 31.8866V36.0532C34.7123 35.8932 34.9856 35.7732 35.2856 35.6999C35.859 35.5599 36.499 35.4066 37.159 35.2399V31.8732C38.959 31.7599 40.7456 31.4199 42.4923 30.8666C42.859 31.7532 43.1723 32.6999 43.419 33.6932C44.2523 33.4866 44.859 33.3332 45.0656 33.2732C45.339 33.1866 45.619 33.1399 45.899 33.1399C45.959 33.1399 46.0123 33.1466 46.0723 33.1532C45.7923 32.0066 45.4456 30.9199 45.0323 29.8999C46.2523 29.3532 47.4523 28.6999 48.6123 27.9399C50.1856 29.8399 51.3323 32.0932 51.9323 34.5666C53.179 34.8732 54.4723 35.1932 55.6256 35.4732C54.1523 25.8599 45.839 18.4666 35.819 18.4666C24.759 18.4666 15.7656 27.4599 15.7656 38.5199C15.7656 49.5799 24.759 58.5732 35.819 58.5732C36.619 58.5732 37.4056 58.5199 38.179 58.4266C36.5456 56.9799 35.299 55.3732 34.4723 53.6332L34.4656 53.6466ZM46.679 25.9932C45.759 26.5666 44.8323 27.0666 43.8856 27.4932C42.8323 25.5466 41.6256 23.9066 40.499 22.6066C42.8056 23.2866 44.9056 24.4599 46.679 25.9932ZM37.1523 22.9866C38.379 24.2266 39.9656 26.0732 41.299 28.4399C39.939 28.8399 38.559 29.0866 37.1523 29.1866V22.9866ZM34.4656 29.1932C33.059 29.0999 31.6723 28.8532 30.3056 28.4599C31.6456 26.0799 33.2323 24.2266 34.4656 22.9866V29.1932ZM31.119 22.5999C29.9923 23.9066 28.7723 25.5532 27.719 27.5132C26.7656 27.0932 25.8256 26.5932 24.9056 26.0132C26.6856 24.4599 28.7923 23.2799 31.119 22.5999ZM22.9856 27.9866C24.1523 28.7466 25.3523 29.3999 26.579 29.9466C25.7123 32.0799 25.0923 34.4999 24.9456 37.1932H19.259C19.539 33.7199 20.8923 30.5399 22.9856 27.9932V27.9866ZM19.259 39.8799H24.9656C25.139 42.5599 25.779 44.9666 26.659 47.0866C25.4056 47.6399 24.179 48.3066 22.9856 49.0799C20.8856 46.5332 19.539 43.3532 19.259 39.8799ZM24.9056 51.0466C25.859 50.4532 26.8323 49.9332 27.819 49.5066C28.939 51.5399 30.219 53.2332 31.3923 54.5466C28.959 53.8732 26.7523 52.6666 24.9056 51.0532V51.0466Z"></path>
</svg>